<svg width="236" height="31" viewBox="0 0 236 31" fill="none" xmlns="http://www.w3.org/2000/svg">
<path d="M0 30.4862V0.513811H9.16546C14.4232 0.513811 18.2883 1.85543 20.7608 4.53867C23.2618 7.22192 24.5123 10.9042 24.5123 15.5856C24.5123 20.1814 23.2618 23.8209 20.7608 26.5041C18.2883 29.1588 14.4232 30.4862 9.16546 30.4862H0ZM3.58093 27.489H9.0802C11.979 27.489 14.2811 27.018 15.9863 26.076C17.7199 25.1054 18.9562 23.7353 19.6951 21.9655C20.434 20.1671 20.8035 18.0405 20.8035 15.5856C20.8035 13.0737 20.434 10.9185 19.6951 9.12017C18.9562 7.32182 17.7199 5.93738 15.9863 4.96685C14.2811 3.99632 11.979 3.51105 9.0802 3.51105H3.58093V27.489Z" fill="white"/>
<path d="M39.9567 31C37.9673 31 36.1768 30.5433 34.5853 29.6298C32.9938 28.7164 31.7291 27.4319 30.7912 25.7762C29.8818 24.0921 29.4271 22.1225 29.4271 19.8674C29.4271 17.6123 29.896 15.657 30.8339 14.0014C31.7717 12.3172 33.0364 11.0184 34.6279 10.105C36.2479 9.19153 38.0525 8.73481 40.0419 8.73481C42.0313 8.73481 43.8218 9.19153 45.4133 10.105C47.0049 11.0184 48.2553 12.3172 49.1648 14.0014C50.1026 15.657 50.5716 17.6123 50.5716 19.8674C50.5716 22.1225 50.1026 24.0921 49.1648 25.7762C48.2269 27.4319 46.948 28.7164 45.3281 29.6298C43.7366 30.5433 41.9461 31 39.9567 31ZM39.9567 27.9171C41.1787 27.9171 42.3156 27.6174 43.3671 27.018C44.4186 26.4185 45.2712 25.5193 45.9249 24.3204C46.5786 23.1215 46.9054 21.6372 46.9054 19.8674C46.9054 18.0976 46.5786 16.6133 45.9249 15.4144C45.2997 14.2155 44.4613 13.3163 43.4097 12.7169C42.3582 12.1174 41.2356 11.8177 40.0419 11.8177C38.8199 11.8177 37.6831 12.1174 36.6315 12.7169C35.58 13.3163 34.7274 14.2155 34.0737 15.4144C33.4201 16.6133 33.0932 18.0976 33.0932 19.8674C33.0932 21.6372 33.4201 23.1215 34.0737 24.3204C34.7274 25.5193 35.5658 26.4185 36.5889 27.018C37.6405 27.6174 38.763 27.9171 39.9567 27.9171Z" fill="white"/>
<path d="M66.1229 31C64.1051 31 62.2862 30.5433 60.6662 29.6298C59.0747 28.6878 57.81 27.389 56.8722 25.7334C55.9627 24.0493 55.508 22.0939 55.508 19.8674C55.508 17.6409 55.9627 15.6998 56.8722 14.0442C57.81 12.36 59.0747 11.0612 60.6662 10.1478C62.2862 9.2058 64.1051 8.73481 66.1229 8.73481C68.6238 8.73481 70.7269 9.39134 72.4321 10.7044C74.1657 12.0175 75.2599 13.773 75.7146 15.971H72.0485C71.7643 14.6579 71.068 13.6446 69.9596 12.9309C68.8512 12.1888 67.5581 11.8177 66.0802 11.8177C64.8866 11.8177 63.764 12.1174 62.7125 12.7169C61.6609 13.3163 60.8083 14.2155 60.1547 15.4144C59.501 16.6133 59.1742 18.0976 59.1742 19.8674C59.1742 21.6372 59.501 23.1215 60.1547 24.3204C60.8083 25.5193 61.6609 26.4328 62.7125 27.0608C63.764 27.6602 64.8866 27.9599 66.0802 27.9599C67.5581 27.9599 68.8512 27.6031 69.9596 26.8895C71.068 26.1473 71.7643 25.1054 72.0485 23.7638H75.7146C75.2883 25.9047 74.2084 27.646 72.4748 28.9876C70.7411 30.3292 68.6238 31 66.1229 31Z" fill="white"/>
<path d="M89.3409 30.4862C87.4084 30.4862 85.8879 30.0152 84.7795 29.0732C83.6711 28.1312 83.117 26.4328 83.117 23.9779V12.2887H79.4508V9.24862H83.117L83.5859 4.15332H86.6979V9.24862H92.9219V12.2887H86.6979V23.9779C86.6979 25.3195 86.9679 26.233 87.5079 26.7182C88.0478 27.175 88.9999 27.4033 90.3641 27.4033H92.5808V30.4862H89.3409Z" fill="white"/>
<path d="M107.375 31C105.386 31 103.596 30.5433 102.004 29.6298C100.413 28.7164 99.1479 27.4319 98.21 25.7762C97.3006 24.0921 96.8458 22.1225 96.8458 19.8674C96.8458 17.6123 97.3148 15.657 98.2526 14.0014C99.1905 12.3172 100.455 11.0184 102.047 10.105C103.667 9.19153 105.471 8.73481 107.461 8.73481C109.45 8.73481 111.241 9.19153 112.832 10.105C114.424 11.0184 115.674 12.3172 116.584 14.0014C117.521 15.657 117.99 17.6123 117.99 19.8674C117.99 22.1225 117.521 24.0921 116.584 25.7762C115.646 27.4319 114.367 28.7164 112.747 29.6298C111.155 30.5433 109.365 31 107.375 31ZM107.375 27.9171C108.598 27.9171 109.734 27.6174 110.786 27.018C111.837 26.4185 112.69 25.5193 113.344 24.3204C113.997 23.1215 114.324 21.6372 114.324 19.8674C114.324 18.0976 113.997 16.6133 113.344 15.4144C112.718 14.2155 111.88 13.3163 110.828 12.7169C109.777 12.1174 108.654 11.8177 107.461 11.8177C106.239 11.8177 105.102 12.1174 104.05 12.7169C102.999 13.3163 102.146 14.2155 101.493 15.4144C100.839 16.6133 100.512 18.0976 100.512 19.8674C100.512 21.6372 100.839 23.1215 101.493 24.3204C102.146 25.5193 102.985 26.4185 104.008 27.018C105.059 27.6174 106.182 27.9171 107.375 27.9171Z" fill="white"/>
<path d="M123.822 30.4862V9.24862H127.062L127.36 13.3163C128.014 11.9176 129.009 10.8043 130.344 9.97652C131.68 9.14871 133.329 8.73481 135.289 8.73481V12.5028H134.309C133.059 12.5028 131.908 12.7311 130.856 13.1878C129.804 13.616 128.966 14.3582 128.341 15.4144C127.716 16.4705 127.403 17.9263 127.403 19.7818V30.4862H123.822Z" fill="white"/>
<path d="M153.632 31C150.62 31 148.034 30.3577 145.874 29.0732C143.714 27.7601 142.051 25.9475 140.886 23.6354C139.721 21.2947 139.138 18.5971 139.138 15.5428C139.138 12.4885 139.721 9.79098 140.886 7.45027C142.051 5.10958 143.714 3.28269 145.874 1.96961C148.034 0.656538 150.62 0 153.632 0C157.213 0 160.141 0.899171 162.414 2.69751C164.716 4.46731 166.151 6.96501 166.72 10.1906H160.709C160.34 8.56354 159.544 7.29328 158.322 6.37983C157.128 5.43785 155.537 4.96685 153.547 4.96685C150.79 4.96685 148.63 5.90884 147.067 7.79282C145.504 9.6768 144.723 12.2601 144.723 15.5428C144.723 18.8255 145.504 21.4088 147.067 23.2928C148.63 25.1483 150.79 26.076 153.547 26.076C155.537 26.076 157.128 25.6478 158.322 24.7914C159.544 23.9065 160.34 22.6934 160.709 21.1519H166.72C166.151 24.2348 164.716 26.6469 162.414 28.3881C160.141 30.1294 157.213 31 153.632 31Z" fill="white"/>
<path d="M179.564 31C177.746 31 176.254 30.7146 175.088 30.1436C173.923 29.5442 173.056 28.7592 172.488 27.7887C171.919 26.8181 171.635 25.7477 171.635 24.5773C171.635 22.6077 172.403 21.0092 173.937 19.7818C175.472 18.5543 177.774 17.9406 180.843 17.9406H186.215V17.4268C186.215 15.971 185.803 14.9006 184.978 14.2155C184.154 13.5304 183.131 13.1878 181.909 13.1878C180.801 13.1878 179.834 13.459 179.01 14.0014C178.186 14.5152 177.675 15.2859 177.476 16.3135H172.147C172.289 14.7721 172.8 13.4305 173.682 12.2887C174.591 11.1469 175.756 10.2762 177.177 9.6768C178.598 9.0488 180.19 8.73481 181.952 8.73481C184.964 8.73481 187.337 9.49125 189.071 11.0041C190.805 12.517 191.671 14.6579 191.671 17.4268V30.4862H187.025L186.513 27.0608C185.888 28.2026 185.007 29.1446 183.87 29.8867C182.762 30.6289 181.327 31 179.564 31ZM180.801 26.7182C182.364 26.7182 183.572 26.2044 184.424 25.1768C185.305 24.1492 185.859 22.8789 186.087 21.366H181.44C179.991 21.366 178.953 21.6372 178.328 22.1796C177.703 22.6934 177.39 23.3356 177.39 24.1064C177.39 24.9342 177.703 25.5764 178.328 26.0331C178.953 26.4899 179.778 26.7182 180.801 26.7182Z" fill="white"/>
<path d="M197.731 30.4862V9.24862H202.591L203.103 13.2307C203.87 11.8605 204.907 10.7758 206.215 9.97652C207.55 9.14871 209.113 8.73481 210.904 8.73481V14.5152H209.369C208.176 14.5152 207.11 14.7007 206.172 15.0718C205.234 15.4429 204.495 16.0852 203.955 16.9986C203.444 17.9121 203.188 19.1823 203.188 20.8094V30.4862H197.731Z" fill="white"/>
<path d="M225.385 31C223.254 31 221.364 30.5433 219.715 29.6298C218.067 28.7164 216.774 27.4319 215.836 25.7762C214.898 24.1206 214.429 22.2081 214.429 20.0387C214.429 17.8407 214.884 15.8854 215.793 14.1727C216.731 12.4599 218.01 11.1326 219.63 10.1906C221.278 9.22007 223.211 8.73481 225.428 8.73481C227.502 8.73481 229.335 9.19153 230.927 10.105C232.519 11.0184 233.755 12.2744 234.636 13.8729C235.545 15.4429 236 17.1984 236 19.1395C236 19.4535 235.986 19.7818 235.957 20.1243C235.957 20.4669 235.943 20.8237 235.915 21.1948H219.843C219.957 22.8504 220.525 24.1492 221.548 25.0912C222.6 26.0331 223.865 26.5041 225.342 26.5041C226.451 26.5041 227.375 26.2615 228.113 25.7762C228.881 25.2624 229.449 24.6059 229.819 23.8066H235.361C234.963 25.1483 234.295 26.3757 233.357 27.489C232.448 28.5737 231.311 29.43 229.947 30.058C228.611 30.686 227.09 31 225.385 31ZM225.428 13.1878C224.092 13.1878 222.913 13.5732 221.889 14.3439C220.866 15.0861 220.213 16.2279 219.928 17.7693H230.458C230.373 16.3706 229.861 15.2574 228.923 14.4296C227.986 13.6017 226.82 13.1878 225.428 13.1878Z" fill="white"/>
</svg>
