<svg width="48" height="48" viewBox="0 0 48 48" fill="none" xmlns="http://www.w3.org/2000/svg">
<path d="M22.5 35.5H25.5V29.5H31.5V26.5H25.5V20.5H22.5V26.5H16.5V29.5H22.5V35.5ZM7 44C6.2 44 5.5 43.7 4.9 43.1C4.3 42.5 4 41.8 4 41V14.35C4 13.55 4.3 12.85 4.9 12.25C5.5 11.65 6.2 11.35 7 11.35H16.5V7C16.5 6.2 16.8 5.5 17.4 4.9C18 4.3 18.7 4 19.5 4H28.5C29.3 4 30 4.3 30.6 4.9C31.2 5.5 31.5 6.2 31.5 7V11.35H41C41.8 11.35 42.5 11.65 43.1 12.25C43.7 12.85 44 13.55 44 14.35V41C44 41.8 43.7 42.5 43.1 43.1C42.5 43.7 41.8 44 41 44H7ZM19.5 11.35H28.5V7H19.5V11.35ZM7 41H41V14.35H7V41ZM7 14.35V41V14.35Z" fill="white"/>
</svg>
