<svg width="24" height="24" viewBox="0 0 24 24" fill="none" xmlns="http://www.w3.org/2000/svg">
<path fill-rule="evenodd" clip-rule="evenodd" d="M10.7574 2.75733C11.8826 1.63211 13.4087 0.999969 15 0.999969H18C18.5523 0.999969 19 1.44768 19 1.99997V5.99997C19 6.55225 18.5523 6.99997 18 6.99997H15V8.99997H18C18.3079 8.99997 18.5987 9.14184 18.7882 9.38456C18.9777 9.62727 19.0448 9.94376 18.9701 10.2425L17.9701 14.2425C17.8589 14.6877 17.4589 15 17 15H15V22C15 22.5523 14.5523 23 14 23H10C9.44772 23 9 22.5523 9 22V15H7C6.44772 15 6 14.5523 6 14V9.99997C6 9.44769 6.44772 8.99997 7 8.99997H9V6.99997C9 5.40867 9.63214 3.88255 10.7574 2.75733ZM15 2.99997C13.9391 2.99997 12.9217 3.4214 12.1716 4.17154C11.4214 4.92169 11 5.9391 11 6.99997V9.99997C11 10.5523 10.5523 11 10 11H8V13H10C10.5523 13 11 13.4477 11 14V21H13V14C13 13.4477 13.4477 13 14 13H16.2192L16.7192 11H14C13.4477 11 13 10.5523 13 9.99997V6.99997C13 6.46954 13.2107 5.96083 13.5858 5.58576C13.9609 5.21068 14.4696 4.99997 15 4.99997H17V2.99997H15Z" fill="#00856F"/>
</svg>
