<svg width="24" height="24" viewBox="0 0 24 24" fill="none" xmlns="http://www.w3.org/2000/svg">
<path fill-rule="evenodd" clip-rule="evenodd" d="M7 2.99997C4.79086 2.99997 3 4.79083 3 6.99997V17C3 19.2091 4.79086 21 7 21H17C19.2091 21 21 19.2091 21 17V6.99997C21 4.79083 19.2091 2.99997 17 2.99997H7ZM1 6.99997C1 3.68626 3.68629 0.999969 7 0.999969H17C20.3137 0.999969 23 3.68626 23 6.99997V17C23 20.3137 20.3137 23 17 23H7C3.68629 23 1 20.3137 1 17V6.99997Z" fill="#00856F"/>
<path fill-rule="evenodd" clip-rule="evenodd" d="M12.4833 8.98921C11.8591 8.89665 11.2216 9.00327 10.6615 9.29389C10.1014 9.58452 9.64721 10.0444 9.36351 10.608C9.07982 11.1716 8.98107 11.8104 9.08132 12.4334C9.18157 13.0564 9.47571 13.6319 9.9219 14.0781C10.3681 14.5243 10.9436 14.8184 11.5666 14.9187C12.1896 15.0189 12.8283 14.9202 13.392 14.6365C13.9556 14.3528 14.4155 13.8986 14.7061 13.3385C14.9967 12.7784 15.1033 12.1409 15.0108 11.5167C14.9164 10.88 14.6197 10.2906 14.1645 9.83544C13.7094 9.38031 13.12 9.08363 12.4833 8.98921ZM9.74037 7.51865C10.6739 7.03427 11.7363 6.85658 12.7766 7.01084C13.8378 7.1682 14.8202 7.66267 15.5788 8.42123C16.3373 9.17978 16.8318 10.1622 16.9891 11.2233C17.1434 12.2637 16.9657 13.3261 16.4813 14.2596C15.997 15.1931 15.2306 15.9501 14.2912 16.4229C13.3518 16.8958 12.2872 17.0603 11.2489 16.8933C10.2105 16.7262 9.25134 16.2359 8.50768 15.4923C7.76403 14.7486 7.2738 13.7894 7.10672 12.7511C6.93964 11.7128 7.10422 10.6482 7.57704 9.70881C8.04987 8.76941 8.80687 8.00302 9.74037 7.51865Z" fill="#00856F"/>
<path fill-rule="evenodd" clip-rule="evenodd" d="M16.5 6.49997C16.5 5.94768 16.9477 5.49997 17.5 5.49997H17.51C18.0623 5.49997 18.51 5.94768 18.51 6.49997C18.51 7.05225 18.0623 7.49997 17.51 7.49997H17.5C16.9477 7.49997 16.5 7.05225 16.5 6.49997Z" fill="#00856F"/>
</svg>
