<svg width="24" height="24" viewBox="0 0 24 24" fill="none" xmlns="http://www.w3.org/2000/svg">
<g clip-path="url(#clip0_1736_243)">
<path fill-rule="evenodd" clip-rule="evenodd" d="M11.9999 3.00003C12 3.00003 12 3.00003 12 4.00003L12 5.00003L11.9245 5.00014C11.8745 5.00025 11.8006 5.00047 11.7057 5.00092C11.516 5.00181 11.2425 5.00359 10.9088 5.00716C10.2411 5.0143 9.334 5.02858 8.37473 5.05709C7.41385 5.08564 6.40863 5.12824 5.54214 5.19144C4.65403 5.25622 3.99414 5.33764 3.66537 5.42422C3.36667 5.51003 3.0956 5.67256 2.87916 5.89569C2.66803 6.11336 2.51612 6.38122 2.43763 6.67378C2.13809 8.3474 1.99161 10.0448 2.00001 11.7451L2.00007 11.7563C1.98935 13.4635 2.13473 15.1681 2.4345 16.8488C2.52112 17.1264 2.67455 17.3788 2.8816 17.5837C3.09851 17.7984 3.36696 17.9537 3.66116 18.0347C3.98848 18.1217 4.65022 18.2036 5.54214 18.2686C6.40863 18.3318 7.41385 18.3744 8.37473 18.403C9.334 18.4315 10.2411 18.4458 10.9088 18.4529C11.2425 18.4565 11.516 18.4583 11.7057 18.4591C11.8006 18.4596 11.8745 18.4598 11.9245 18.4599H12.0755C12.1255 18.4598 12.1994 18.4596 12.2943 18.4591C12.4841 18.4583 12.7575 18.4565 13.0912 18.4529C13.759 18.4458 14.666 18.4315 15.6253 18.403C16.5862 18.3744 17.5914 18.3318 18.4579 18.2686C19.346 18.2038 20.0059 18.1224 20.3347 18.0358C20.6334 17.95 20.9044 17.7875 21.1209 17.5644C21.332 17.3467 21.4839 17.0788 21.5624 16.7863C21.8596 15.1254 22.0061 13.441 22 11.7536L22 11.7438C22.0108 10.0306 21.8643 8.32012 21.5624 6.6338C21.4839 6.34123 21.332 6.07336 21.1209 5.85569C20.9069 5.63512 20.6396 5.47376 20.3449 5.3872C20.005 5.30723 19.3426 5.23351 18.4642 5.17501C17.596 5.11719 16.5894 5.07825 15.6279 5.05216C14.6679 5.02612 13.7603 5.01307 13.0921 5.00655C12.7583 5.00328 12.4846 5.00166 12.2947 5.00084L12.0757 5.00013L12 5.00003L12 4.00003C12 3.00003 12 3.00003 11.9999 3.00003L12.0797 3.00014C12.1312 3.00024 12.2067 3.00045 12.3033 3.00086C12.4964 3.00169 12.7737 3.00334 13.1117 3.00664C13.7873 3.01324 14.7071 3.02644 15.6821 3.0529C16.6557 3.07931 17.6916 3.11912 18.5971 3.17943C19.4767 3.23801 20.3115 3.3202 20.8372 3.44857C20.849 3.45144 20.8606 3.45451 20.8723 3.4578C21.5123 3.63889 22.0933 3.98569 22.5565 4.46318C23.0196 4.94066 23.3486 5.53192 23.5101 6.17722C23.5155 6.19883 23.5202 6.2206 23.5241 6.24252C23.852 8.06024 24.0113 9.90435 24 11.7514C24.0063 13.5707 23.847 15.3869 23.5242 17.1775C23.5202 17.1994 23.5155 17.2212 23.5101 17.2428C23.3486 17.8881 23.0196 18.4794 22.5565 18.9569C22.0933 19.4344 21.5123 19.7812 20.8723 19.9623L20.8584 19.9661C20.3247 20.1088 19.4827 20.1992 18.6034 20.2633C17.6961 20.3295 16.6589 20.3731 15.6847 20.4021C14.709 20.4311 13.7886 20.4456 13.1126 20.4528C12.7744 20.4564 12.4969 20.4582 12.3037 20.4591C12.2071 20.4596 12.1315 20.4598 12.0799 20.4599L12.0005 20.46L11.9201 20.4599C11.8685 20.4598 11.793 20.4596 11.6963 20.4591C11.5031 20.4582 11.2256 20.4564 10.8875 20.4528C10.2115 20.4456 9.29105 20.4311 8.31532 20.4021C7.34119 20.3731 6.30392 20.3295 5.39665 20.2633C4.51735 20.1992 3.67531 20.1088 3.14166 19.9661L3.1361 19.9646C2.50903 19.793 1.93681 19.4626 1.47473 19.0053C1.01265 18.548 0.67633 17.9792 0.498264 17.3539C0.489225 17.3222 0.481762 17.29 0.475904 17.2575C0.148065 15.44 -0.0112431 13.5962 7.33562e-06 11.7494C-0.00870692 9.91639 0.150588 8.08646 0.475897 6.28256C0.479851 6.26063 0.484537 6.23884 0.489948 6.21722C0.651466 5.57192 0.980418 4.98066 1.44358 4.50318C1.90674 4.02569 2.4877 3.67889 3.12779 3.4978L3.14166 3.49398C3.67531 3.35126 4.51735 3.26088 5.39665 3.19674C6.30392 3.13057 7.34119 3.08692 8.31532 3.05797C9.29105 3.02898 10.2115 3.01451 10.8875 3.00728C11.2256 3.00366 11.5031 3.00185 11.6963 3.00094C11.793 3.00049 11.8685 3.00026 11.9201 3.00015L11.9999 3.00003Z" fill="#00856F"/>
<path fill-rule="evenodd" clip-rule="evenodd" d="M9.24718 7.61562C9.55499 7.43656 9.9348 7.43471 10.2443 7.61075L15.9943 10.8807C16.3069 11.0585 16.5 11.3904 16.5 11.75C16.5 12.1096 16.3069 12.4415 15.9943 12.6193L10.2443 15.8893C9.9348 16.0653 9.55499 16.0635 9.24718 15.8844C8.93937 15.7053 8.75 15.3761 8.75 15.02V8.48001C8.75 8.12391 8.93937 7.79467 9.24718 7.61562ZM10.75 10.1991V13.3009L13.4771 11.75L10.75 10.1991Z" fill="#00856F"/>
</g>
<defs>
<clipPath id="clip0_1736_243">
<rect width="24" height="24" fill="white"/>
</clipPath>
</defs>
</svg>
